# xmcd
#
# Track frame offsets: 
#        150
#        18837
#        41715
#        56829
#        74898
#        92729
#        111240
#        126415
#        141441
#        168374
#        184669
#        199325
#        212962
#        230229
#        246425
#
# Disc length: 3731 seconds
#
# Revision: 0
# Processed by: cddbd v1.5.2PL0 Copyright (c) Steve Scherf et al.
# Submitted via: ExactAudioCopy v0.95b2
#
DISCID=f50e910f
DTITLE=Damn Sam The Miracle Man and The Soul Congregation - Damn Sam The
DTITLE=Miracle Man and The Soul Congregation
DYEAR=1900
DGENRE=Funk
TTITLE0=Give Me Another Joint
TTITLE1=Let Me Be Your Only Man
TTITLE2=L.A. 26000
TTITLE3=Poor Mary
TTITLE4=Damn Sam The Miracle Man
TTITLE5=Smash
TTITLE6=Music Makes You Feel All Right
TTITLE7=B.J.
TTITLE8=Rainy Night In Georgia
TTITLE9=Sonny B.
TTITLE10=You Gotta Hold On Me
TTITLE11=Hard Times
TTITLE12=Lucky Man
TTITLE13=I've Got It
TTITLE14=Got To Be Free
EXTD=
EXTT0=
EXTT1=
EXTT2=
EXTT3=
EXTT4=
EXTT5=
EXTT6=
EXTT7=
EXTT8=
EXTT9=
EXTT10=
EXTT11=
EXTT12=
EXTT13=
EXTT14=
PLAYORDER=
